<svg width="16" height="11" viewBox="0 0 16 11" fill="none" xmlns="http://www.w3.org/2000/svg">
<path d="M13.7323 0H1.32324C0.592136 0 0 0.595812 0 1.32324V9.2627C0 9.99445 0.596488 10.5859 1.32324 10.5859H13.7323C14.4573 10.5859 15.0556 9.99695 15.0556 9.2627V1.32324C15.0556 0.597106 14.4658 0 13.7323 0ZM13.547 0.882161C13.2766 1.15107 8.6241 5.77913 8.46346 5.93892C8.21351 6.18886 7.88123 6.32648 7.52778 6.32648C7.17432 6.32648 6.84204 6.18883 6.59127 5.93809C6.48324 5.83062 1.88203 1.25367 1.50855 0.882161H13.547ZM0.882161 9.08315V1.50335L4.69422 5.29532L0.882161 9.08315ZM1.50911 9.70378L5.31967 5.91745L5.96832 6.56269C6.38488 6.97925 6.9387 7.20864 7.52778 7.20864C8.11686 7.20864 8.67068 6.97925 9.08641 6.56352L9.73589 5.91745L13.5464 9.70378H1.50911ZM14.1734 9.08315L10.3613 5.29532L14.1734 1.50335V9.08315Z" fill="white"/>
</svg>
