<svg width="130" height="17" viewBox="0 0 130 17" fill="none" xmlns="http://www.w3.org/2000/svg">
<g clip-path="url(#clip0_31_7442)">
<path d="M8.50343 2.56788V0H2.56892H0V2.56788V14.4321V17H2.56892H8.50343V14.4321H2.56892V2.56788H8.50343Z" fill="#F6F6F7"/>
<path d="M11.0724 14.4321V17H17.0069H19.5758V14.4321V2.56788V0H17.0069H11.0724V2.56788H17.0069V14.4321H11.0724Z" fill="#F6F6F7"/>
<path d="M14.438 5.13574H11.0724V7.70363H14.438V5.13574Z" fill="#48D259"/>
<path d="M5.13782 5.13574V7.67289H8.50341V14.4321H11.0723V5.13574H5.13782Z" fill="#F6F6F7"/>
<path d="M34.693 5.22241H39.0621C40.4794 5.22241 41.4549 5.57728 42.0727 6.22554C42.3523 6.50828 42.571 6.84532 42.7153 7.21586C42.8595 7.58639 42.9262 7.98256 42.9113 8.37988V8.41061C42.9113 9.82728 42.1733 10.741 41.0216 11.2439L43.2076 14.4601H40.2557L38.394 11.6659H37.2759V14.4601H34.7349L34.7069 5.22241H34.693ZM38.9447 9.65124C39.8001 9.65124 40.3032 9.2377 40.3032 8.5587V8.52797C40.3032 7.7903 39.7721 7.43543 38.9056 7.43543H37.2284V9.65124H38.9447Z" fill="#F6F6F7"/>
<path d="M45.5864 5.22241H52.9969V7.40749H48.1274V8.8046H52.5552V10.7969H48.1274V12.2415H53.0584V14.4293H45.5864V5.22241Z" fill="#F6F6F7"/>
<path d="M55.8538 5.22241H58.4227V14.4433H55.8538V5.22241Z" fill="#F6F6F7"/>
<path d="M61.5311 5.22241H63.9239L67.7004 10.0927V5.22241H70.2414V14.4433H68.0051L64.0916 9.39697V14.4294H61.5535L61.5311 5.22241Z" fill="#F6F6F7"/>
<path d="M76.4694 5.16382H78.9209L82.8344 14.4322H80.0893L79.4101 12.7781H75.8656L75.2171 14.4322H72.5308L76.4694 5.16382ZM78.7057 10.8025L77.6714 8.17598L76.6399 10.8025H78.7057Z" fill="#F6F6F7"/>
<path d="M99.5002 5.22246H106.911V7.40754H102.038V8.80465H106.469V10.7969H102.038V12.2415H107.009V14.4294H99.5394V5.2085L99.5002 5.22246Z" fill="#F6F6F7"/>
<path d="M109.714 5.22249H114.439C115.59 5.22249 116.418 5.51868 116.954 6.06076C117.338 6.45576 117.55 6.98589 117.544 7.5361V7.56684C117.556 8.01647 117.425 8.45832 117.171 8.82921C116.916 9.2001 116.551 9.48101 116.127 9.63176C117.245 9.98663 117.958 10.6349 117.958 11.8671V11.8951C117.958 13.4598 116.661 14.435 114.475 14.435H109.723V5.21411L109.714 5.22249ZM113.821 8.91366C114.587 8.91366 115.031 8.6482 115.031 8.11451V8.08656C115.031 7.5836 114.645 7.29022 113.88 7.29022H112.225V8.91366H113.821ZM114.204 12.3952C114.972 12.3952 115.445 12.0991 115.445 11.5402V11.5095C115.445 11.0065 115.059 10.6712 114.204 10.6712H112.247V12.3841L114.204 12.3952Z" fill="#F6F6F7"/>
<path d="M129.88 11.54H120.549V14.1079H129.88V11.54Z" fill="#48D259"/>
<path d="M32.7726 5.2251H29.3763H23.4418V7.79019H26.8102V14.432H29.3763V7.79019H32.7726V5.2251Z" fill="#F6F6F7"/>
<path d="M94.449 5.22507L92.825 10.5648L91.0555 5.19434H88.8416L87.0973 10.3888L85.9456 6.87645L85.4452 5.22507H85.4145H82.7869L85.8589 14.5214H88.0729L88.249 13.9011H88.2797V13.8704L89.9038 9.20683L91.7627 14.5214H94.0074L97.0795 5.22507H94.449Z" fill="#F6F6F7"/>
</g>
<defs>
<clipPath id="clip0_31_7442">
<rect width="129.88" height="17" fill="white"/>
</clipPath>
</defs>
</svg>
